<svg xmlns="http://www.w3.org/2000/svg" viewBox="0 0 496.36 160.21"><defs><style>.cls-1,.cls-2{fill:#fff;}.cls-2{font-size:22.44px;font-family:Roboto-Thin, Roboto;font-weight:200;}.cls-3{letter-spacing:-0.01em;}</style></defs><g id="Layer_2" data-name="Layer 2"><g id="Capa_1" data-name="Capa 1"><path class="cls-1" d="M41.12,111.48H86.25v3.26H37.8V26.8h3.32Z"/><path class="cls-1" d="M157.58,26.8V86.35q0,14-8.09,21.78T127.56,116q-13.83,0-21.92-7.82T97.48,86.6V26.8h3.26V86.23q0,12.21,7.34,19.33t19.48,7.13q12.15,0,19.45-7.13t7.31-19.39V26.8Z"/><path class="cls-1" d="M180.84,114.74V26.8h24.34a36,36,0,0,1,18.49,4.83,34.12,34.12,0,0,1,13,13.56,41.6,41.6,0,0,1,4.84,19.54V76.15A41.92,41.92,0,0,1,236.86,96,34.19,34.19,0,0,1,224,109.73a35.76,35.76,0,0,1-18.49,5Zm3.26-84.68v81.42h21.08A32.38,32.38,0,0,0,222,107a31.5,31.5,0,0,0,11.86-12.56,38.06,38.06,0,0,0,4.35-17.91V65.21A38.14,38.14,0,0,0,234,47.33a31.5,31.5,0,0,0-11.72-12.59,32.34,32.34,0,0,0-16.64-4.68Z"/><path class="cls-1" d="M309.14,71.13H265v40.35H315.3v3.26H261.78V26.8H315.3v3.26H265V67.87h44.1Z"/><path class="cls-1" d="M395.58,114.74h-3.27L335.54,32.35v82.39h-3.33V26.8h3.33L392.31,109V26.8h3.27Z"/><path class="cls-1" d="M472.41,93.66a16.64,16.64,0,0,0-2.63-9.51,22.29,22.29,0,0,0-8.27-6.89q-5.65-3-17.07-6.13t-17.12-6.34A22.56,22.56,0,0,1,419,57.36a18.93,18.93,0,0,1-2.65-10.27q0-9.6,8.09-15.55t21.08-5.95a34.06,34.06,0,0,1,15.19,3.29,24.64,24.64,0,0,1,10.42,9.24,25,25,0,0,1,3.69,13.44H471.5a20.83,20.83,0,0,0-7.24-16.28q-7.26-6.44-18.79-6.43T426.72,34q-7.17,5.18-7.16,13a15.36,15.36,0,0,0,6.22,12.75q6.23,4.83,20.54,8.54t21,8.61a19.68,19.68,0,0,1,8.45,16.67A19.38,19.38,0,0,1,472,105.29a23.87,23.87,0,0,1-10.63,7.88A41.08,41.08,0,0,1,445.89,116a44.28,44.28,0,0,1-17.15-3.17,24.35,24.35,0,0,1-11.45-9,24.67,24.67,0,0,1-3.83-13.83h3.26q0,10.81,8.09,16.79t21.08,6q11.53,0,19-5.29T472.41,93.66Z"/><polygon class="cls-1" points="1.51 145.85 0 145.85 0 0 145.56 0 145.56 1.51 1.51 1.51 1.51 145.85"/><polygon class="cls-1" points="496.36 160.21 350.81 160.21 350.81 158.69 494.85 158.69 494.85 14.35 496.36 14.35 496.36 160.21"/><text class="cls-2" transform="translate(329.56 145.32)">PRODU<tspan class="cls-3" x="73.32" y="0">C</tspan><tspan x="87.54" y="0">TIONS</tspan></text></g></g></svg>